<?xml version="1.0" encoding="iso-8859-1"?>
<!-- Generator: Adobe Illustrator 19.2.1, SVG Export Plug-In . SVG Version: 6.00 Build 0)  -->
<svg version="1.1" id="Layer_1_1_" xmlns="http://www.w3.org/2000/svg" xmlns:xlink="http://www.w3.org/1999/xlink" x="0px" y="0px"
	 viewBox="0 0 64 64" style="enable-background:new 0 0 64 64;" xml:space="preserve">
<g>
</g>
<path d="M49.171,48h-1.424l-3.2-8H59.57c1.93,0,3.5-1.57,3.5-3.5S61.5,33,59.57,33H34.274l19.549-22.341
	c0.329-0.377,0.329-0.94,0-1.317l-7-8C46.632,1.125,46.358,1,46.07,1h-28c-0.288,0-0.563,0.125-0.753,0.341l-7,8
	c-0.329,0.377-0.329,0.94,0,1.317L29.866,33H4.57c-1.93,0-3.5,1.57-3.5,3.5S2.64,40,4.57,40h4.17
	c-0.146,0.379-0.221,0.785-0.21,1.206c0.021,0.865,0.387,1.661,1.023,2.236l17.693,16.242C28.172,60.533,29.373,61,30.628,61H49.07
	v2h2V49c0-1.654,1.346-3,3-3h9v-2h-9C51.656,44,49.636,45.721,49.171,48z M39.82,11h11.046L34.297,29.936L39.82,11z M32.07,30.429
	L26.403,11h11.333L32.07,30.429z M27.274,9l4.796-5.481L36.866,9H27.274z M34.274,3h9.592L39.07,8.481L34.274,3z M25.07,8.481
	L20.274,3h9.592L25.07,8.481z M22.866,9h-9.592l4.796-5.481L22.866,9z M24.32,11l5.523,18.936L13.274,11H24.32z M50.866,9h-9.592
	l4.796-5.481L50.866,9z M3.07,36.5c0-0.827,0.673-1.5,1.5-1.5h55c0.827,0,1.5,0.673,1.5,1.5s-0.673,1.5-1.5,1.5h-16.5h-4H4.57
	C3.743,38,3.07,37.327,3.07,36.5z M21.798,46.08l-1.636-4.474c-0.133-0.311-0.123-0.648,0.026-0.951
	c0.15-0.303,0.414-0.514,0.741-0.596c0.493-0.124,1.009,0.098,1.249,0.519l3.906,7.186l-0.012,0.16l0.103,0.008l2.25,4.139
	L21.798,46.08z M30.38,40.318c0.195,0.205,0.295,0.474,0.281,0.756l-0.498,10.005l-2.039-3.751l0.494-6.383
	C28.66,40.415,29.108,40,29.639,40C29.922,40,30.185,40.113,30.38,40.318z M26.625,40.791l-0.256,3.306L24.142,40h2.667
	C26.717,40.251,26.646,40.513,26.625,40.791z M32.484,40h5.586v8.382l-5.916,2.958l0.506-10.167
	C32.68,40.766,32.617,40.37,32.484,40z M18.312,40c-0.308,0.769-0.318,1.621-0.007,2.343l0.315,0.863L15.072,40H18.312z M30.628,59
	c-0.753,0-1.474-0.281-2.029-0.79L10.9,41.963c-0.231-0.209-0.363-0.496-0.371-0.808c-0.008-0.312,0.109-0.604,0.33-0.825
	c0.421-0.422,1.101-0.441,1.54-0.051l7.69,6.951l0.041,0.113l0.06-0.022l8.209,7.42c0.308,0.277,0.751,0.337,1.118,0.153l10-5
	c0.339-0.169,0.553-0.516,0.553-0.895v-9h2.323l3.748,9.372C46.294,49.751,46.661,50,47.07,50h2v9H30.628z"/>
<path d="M2.07,7c1.654,0,3,1.346,3,3c0,0.552,0.447,1,1,1c0.553,0,1-0.448,1-1c0-1.654,1.346-3,3-3c0.553,0,1-0.448,1-1
	s-0.447-1-1-1c-1.654,0-3-1.346-3-3c0-0.552-0.447-1-1-1c-0.553,0-1,0.448-1,1c0,1.654-1.346,3-3,3c-0.553,0-1,0.448-1,1
	S1.517,7,2.07,7z M6.07,4.997C6.355,5.377,6.693,5.715,7.073,6C6.693,6.285,6.355,6.623,6.07,7.003C5.785,6.623,5.447,6.285,5.067,6
	C5.447,5.715,5.785,5.377,6.07,4.997z"/>
</svg>
